<svg width="24" height="24" viewBox="0 0 24 24" fill="none" xmlns="http://www.w3.org/2000/svg">
<path d="M23.6727 7.34047L12.7527 0.225919C12.5228 0.0777948 12.2636 0 12 0C11.7364 0 11.4772 0.0777948 11.2473 0.225919L0.327273 7.34047C0.227708 7.40647 0.14504 7.50142 0.0875876 7.61576C0.0301356 7.7301 -7.35764e-05 7.8598 1.3457e-07 7.9918V16.0082C-7.35764e-05 16.1402 0.0301356 16.2699 0.0875876 16.3842C0.14504 16.4986 0.227708 16.5935 0.327273 16.6595L11.2473 23.7741C11.4772 23.9222 11.7364 24 12 24C12.2636 24 12.5228 23.9222 12.7527 23.7741L23.6727 16.6595C23.7723 16.5935 23.855 16.4986 23.9124 16.3842C23.9699 16.2699 24.0001 16.1402 24 16.0082V7.9918C24.0001 7.8598 23.9699 7.7301 23.9124 7.61576C23.855 7.50142 23.7723 7.40647 23.6727 7.34047V7.34047ZM22.6909 14.7181L18.5236 12L22.6909 9.28194V14.7181ZM22.0145 7.9918L17.1927 11.1357L12.6545 8.17969V1.89183L22.0145 7.9918ZM12 14.5176L8.13818 12L12 9.48235L15.8618 12L12 14.5176ZM11.3455 1.89183V8.17969L6.80727 11.1357L1.98545 7.9918L11.3455 1.89183ZM1.30909 9.28194L5.47636 12L1.30909 14.7181V9.28194ZM1.98545 16.0082L6.80727 12.8643L11.3455 15.8203V22.1082L1.98545 16.0082ZM12.6545 22.1082V15.8203L17.1927 12.8643L22.0145 16.0082L12.6545 22.1082Z" fill="#CCD6F6"/>
</svg>
