<svg width="26" height="26" viewBox="0 0 26 26" fill="none" xmlns="http://www.w3.org/2000/svg">
<path d="M8.71289 25C8.71289 25 7.74878 21.16 9.677 19.24C9.677 19.24 5.82056 19.24 2.92822 16.36C0.0358887 13.48 1 7.72 2.92822 5.8C1.96411 2.92 3.89233 1 3.89233 1C3.89233 1 6.78467 1 8.71289 2.92C10.6411 1.96 15.4617 1.96 17.3899 2.92C19.3181 1 22.2104 1 22.2104 1C22.2104 1 24.1387 2.92 23.1746 5.8C25.1028 7.72 26.0669 13.48 23.1746 16.36C20.2822 19.24 16.4258 19.24 16.4258 19.24C18.354 21.16 17.3899 25 17.3899 25M7.74878 24.04C4.85645 25 1.96411 23.08 1 22.12" stroke="#CCD6F6" stroke-width="1.5" stroke-linecap="round" stroke-linejoin="round"/>
</svg>
