<svg width="26" height="26" viewBox="0 0 26 26" fill="none" xmlns="http://www.w3.org/2000/svg">
<path d="M13 18.3333C14.4145 18.3333 15.7711 17.7714 16.7713 16.7712C17.7715 15.771 18.3334 14.4144 18.3334 13C18.3334 11.5855 17.7715 10.2289 16.7713 9.22872C15.7711 8.22853 14.4145 7.66663 13 7.66663C11.5855 7.66663 10.229 8.22853 9.22878 9.22872C8.22859 10.2289 7.66669 11.5855 7.66669 13C7.66669 14.4144 8.22859 15.771 9.22878 16.7712C10.229 17.7714 11.5855 18.3333 13 18.3333V18.3333Z" stroke="#CCD6F6" stroke-width="1.5" stroke-linecap="round" stroke-linejoin="round"/>
<path d="M1 18.3333V7.66667C1 5.89856 1.70238 4.20286 2.95262 2.95262C4.20286 1.70238 5.89856 1 7.66667 1H18.3333C20.1014 1 21.7971 1.70238 23.0474 2.95262C24.2976 4.20286 25 5.89856 25 7.66667V18.3333C25 20.1014 24.2976 21.7971 23.0474 23.0474C21.7971 24.2976 20.1014 25 18.3333 25H7.66667C5.89856 25 4.20286 24.2976 2.95262 23.0474C1.70238 21.7971 1 20.1014 1 18.3333Z" stroke="#CCD6F6" stroke-width="1.5"/>
<path d="M20.3333 5.68007L20.3466 5.66541" stroke="#CCD6F6" stroke-width="1.5" stroke-linecap="round" stroke-linejoin="round"/>
</svg>
