<svg width="1793" height="1080" viewBox="0 0 1793 1080" fill="none" xmlns="http://www.w3.org/2000/svg">
<g filter="url(#filter0_dddddd_10_275)">
<path fill-rule="evenodd" clip-rule="evenodd" d="M923.312 502.539L925.866 497.796C951.769 512.876 1011.75 549.091 1044.44 573.316C1044.19 593.747 1042.03 647.596 1035.32 699.548C1032.28 725.452 1019.77 789.662 994.09 839.279C1008.8 819.7 1041.66 765.218 1055.38 703.926C1060.12 686.536 1070.92 634.316 1076.18 564.56C1048.21 548.386 979.57 511.222 928.785 491.959L932.433 484.297C970.011 494.634 1057.79 520.853 1108.28 543.035C1107.19 569.303 1100.69 638.257 1083.47 703.926C1074.58 737.856 1050.06 825.197 980.591 908.963C981.548 907.974 982.713 906.801 984.08 905.424C998.854 890.537 1037.17 851.928 1091.14 767.772C1118.13 717.79 1136.01 660.147 1158.63 522.969C1105.36 505.822 1032.76 486.851 934.622 476.636L937.541 470.798C974.024 468.852 1059.25 467.515 1108.28 477.73C1113.88 440.395 1111.86 353.76 1067.79 305.894C1077.52 332.527 1095.66 398.561 1081.65 449.638C1046.02 449.395 967.53 450.878 938.635 458.759L933.893 452.557C955.296 439.787 1004.16 413.155 1028.38 408.777C1028.46 408.193 1028.54 407.606 1028.62 407.015C1035.58 355.847 1046.5 275.511 972.565 172C990.442 208.848 1019.34 297.794 1000.66 390.9L928.055 443.801L922.583 436.139L944.838 413.155C940.824 406.588 928.858 391.921 913.097 385.792C920.637 394.791 930.828 414.687 911.273 422.275H882.451C874.06 420.086 861.948 409.725 880.627 385.792C872.965 389.319 856.11 399.729 849.981 413.155L866.763 433.22L863.115 440.517L793.067 391.265C784.798 355.633 778.036 261.968 817.146 172.365C813.999 178.159 810.97 183.683 808.062 188.987C768.489 261.16 751.281 292.545 763.516 408.777C777.258 411.695 814.446 424.391 853.265 451.827L851.076 456.57C817.754 453.408 743.012 447.741 710.615 450.368C705.021 424.343 699.889 359.013 724.114 305.894C685.806 359.889 678.145 399.291 684.712 478.825C712.317 473.474 784.238 464.377 851.076 470.798L853.265 476.636C804.134 482.838 691.498 500.787 634 522.969C635.61 531.591 637.173 540.046 638.705 548.333C652.796 624.56 664.282 686.692 685.806 735.667C722.292 805.831 753.446 841.878 791.345 885.727C797.785 893.179 804.42 900.855 811.309 908.963C752.571 827.605 691.717 725.452 684.712 543.035C723.384 527.591 812.768 494.22 860.926 484.297L864.21 491.959C824.808 508.619 739.802 546.319 717.912 563.831C718.153 567.076 718.391 570.336 718.63 573.61C724.164 649.467 730.281 733.309 797.08 839.279C776.285 793.675 752.79 741.723 747.828 573.316C776.65 553.98 840.787 511.805 866.763 497.796L869.682 502.539C856.548 510.93 826.048 532.017 809.12 549.237C808.025 556.291 806.493 582.583 809.12 631.325C821.646 654.066 856.621 703.27 896.315 718.155C916.624 709.885 962.277 680.942 982.415 631.325C983.996 619.65 986.793 587.034 985.334 549.967C973.173 538.9 943.743 513.921 923.312 502.539ZM857.638 521.508L857.486 521.633C849.744 528.023 832.192 542.511 824.073 551.789C824.195 566.991 825.313 601.698 827.356 617.459C836.477 635.458 863.986 675.176 896.675 690.061C913.457 681.305 952.421 653.359 965.263 617.459C965.33 616.757 965.403 615.991 965.482 615.166C966.702 602.401 969.276 575.454 969.276 553.249C962.101 545.587 945.489 528.513 936.442 521.508C940.941 527.345 951.546 541.866 957.967 553.249C958.575 560.424 958.175 578.197 955.778 593.38C953.589 607.244 934.982 645.551 896.675 661.604C879.528 654.533 844.358 630.989 837.937 593.38C836.842 588.273 834.872 574.19 835.748 554.343C839.601 548.435 846.348 538.366 851.787 530.251C854.072 526.84 856.126 523.775 857.638 521.508Z" fill="url(#paint0_linear_10_275)"/>
<path d="M925.866 497.796L926.415 496.853C926.16 496.705 925.855 496.666 925.57 496.746C925.286 496.826 925.046 497.019 924.906 497.279L925.866 497.796ZM923.312 502.539L922.352 502.022C922.069 502.547 922.261 503.201 922.782 503.491L923.312 502.539ZM1044.44 573.316L1045.53 573.329C1045.53 572.979 1045.37 572.648 1045.09 572.44L1044.44 573.316ZM1035.32 699.548L1034.23 699.409L1034.23 699.421L1035.32 699.548ZM994.09 839.279L993.121 838.778C992.861 839.282 993.029 839.901 993.51 840.203C993.99 840.505 994.621 840.388 994.962 839.935L994.09 839.279ZM1055.38 703.926L1054.33 703.639C1054.33 703.656 1054.32 703.672 1054.32 703.688L1055.38 703.926ZM1076.18 564.56L1077.26 564.642C1077.3 564.225 1077.09 563.826 1076.72 563.616L1076.18 564.56ZM928.785 491.959L927.8 491.49C927.669 491.765 927.659 492.082 927.773 492.365C927.886 492.648 928.113 492.87 928.398 492.978L928.785 491.959ZM932.433 484.297L932.722 483.245C932.213 483.105 931.676 483.351 931.448 483.828L932.433 484.297ZM1108.28 543.035L1109.37 543.081C1109.39 542.632 1109.13 542.217 1108.72 542.037L1108.28 543.035ZM1083.47 703.926L1084.53 704.203L1083.47 703.926ZM980.591 908.963L979.752 908.266C979.378 908.717 979.427 909.383 979.863 909.775C980.299 910.166 980.967 910.142 981.374 909.721L980.591 908.963ZM984.08 905.424L984.854 906.192L984.08 905.424ZM1091.14 767.772L1092.05 768.361C1092.07 768.338 1092.08 768.315 1092.1 768.291L1091.14 767.772ZM1158.63 522.969L1159.71 523.147C1159.79 522.614 1159.48 522.097 1158.96 521.931L1158.63 522.969ZM934.622 476.636L933.647 476.148C933.487 476.468 933.494 476.846 933.666 477.16C933.838 477.474 934.153 477.683 934.509 477.72L934.622 476.636ZM937.541 470.798L937.483 469.709C937.091 469.73 936.741 469.96 936.565 470.31L937.541 470.798ZM1108.28 477.73L1108.06 478.798C1108.35 478.859 1108.66 478.796 1108.91 478.625C1109.15 478.454 1109.32 478.188 1109.36 477.892L1108.28 477.73ZM1067.79 305.894L1068.59 305.155C1068.24 304.772 1067.66 304.692 1067.22 304.962C1066.77 305.233 1066.58 305.779 1066.76 306.268L1067.79 305.894ZM1081.65 449.638L1081.64 450.729C1082.14 450.732 1082.57 450.403 1082.7 449.926L1081.65 449.638ZM938.635 458.759L937.769 459.421C938.038 459.774 938.494 459.928 938.922 459.811L938.635 458.759ZM933.893 452.557L933.334 451.62C933.067 451.779 932.88 452.045 932.822 452.351C932.763 452.656 932.837 452.972 933.026 453.219L933.893 452.557ZM1028.38 408.777L1028.58 409.85C1029.04 409.766 1029.4 409.392 1029.46 408.923L1028.38 408.777ZM1028.62 407.015L1029.7 407.162L1029.7 407.162L1028.62 407.015ZM972.565 172L973.452 171.366C973.123 170.905 972.495 170.773 972.008 171.062C971.521 171.352 971.336 171.966 971.584 172.476L972.565 172ZM1000.66 390.9L1001.3 391.781C1001.52 391.62 1001.67 391.382 1001.73 391.114L1000.66 390.9ZM928.055 443.801L927.168 444.434C927.337 444.671 927.594 444.831 927.881 444.877C928.168 444.924 928.462 444.853 928.697 444.682L928.055 443.801ZM922.583 436.139L921.799 435.38C921.433 435.759 921.389 436.345 921.695 436.773L922.583 436.139ZM944.838 413.155L945.621 413.913C945.967 413.556 946.027 413.01 945.768 412.586L944.838 413.155ZM913.097 385.792L913.492 384.776C913.028 384.595 912.501 384.752 912.211 385.157C911.921 385.561 911.941 386.111 912.261 386.493L913.097 385.792ZM911.273 422.275V423.366C911.408 423.366 911.542 423.341 911.667 423.292L911.273 422.275ZM882.451 422.275L882.176 423.331C882.266 423.354 882.358 423.366 882.451 423.366V422.275ZM880.627 385.792L881.487 386.463C881.796 386.066 881.794 385.51 881.482 385.115C881.17 384.721 880.628 384.591 880.171 384.801L880.627 385.792ZM849.981 413.155L848.989 412.702C848.814 413.084 848.875 413.532 849.144 413.854L849.981 413.155ZM866.763 433.22L867.739 433.708C867.933 433.32 867.878 432.854 867.6 432.521L866.763 433.22ZM863.115 440.517L862.488 441.409C862.747 441.592 863.074 441.652 863.382 441.575C863.69 441.497 863.949 441.289 864.091 441.005L863.115 440.517ZM793.067 391.265L792.005 391.511C792.065 391.773 792.22 392.002 792.44 392.157L793.067 391.265ZM817.146 172.365L818.146 172.801C818.379 172.266 818.15 171.641 817.625 171.385C817.1 171.128 816.466 171.331 816.188 171.844L817.146 172.365ZM808.062 188.987L807.106 188.462V188.462L808.062 188.987ZM763.516 408.777L762.431 408.891C762.48 409.361 762.827 409.745 763.289 409.843L763.516 408.777ZM853.265 451.827L854.255 452.284C854.475 451.806 854.323 451.24 853.894 450.936L853.265 451.827ZM851.076 456.57L850.973 457.655C851.433 457.699 851.872 457.447 852.066 457.027L851.076 456.57ZM710.615 450.368L709.549 450.597C709.664 451.132 710.157 451.499 710.703 451.455L710.615 450.368ZM724.114 305.894L725.106 306.346C725.339 305.835 725.145 305.229 724.658 304.949C724.171 304.668 723.55 304.804 723.224 305.263L724.114 305.894ZM684.712 478.825L683.625 478.914C683.65 479.223 683.806 479.507 684.053 479.694C684.3 479.881 684.615 479.954 684.919 479.895L684.712 478.825ZM851.076 470.798L852.097 470.415C851.95 470.025 851.595 469.752 851.18 469.713L851.076 470.798ZM853.265 476.636L853.401 477.718C853.732 477.676 854.026 477.485 854.198 477.199C854.371 476.914 854.403 476.565 854.286 476.253L853.265 476.636ZM634 522.969L633.607 521.952C633.117 522.141 632.831 522.653 632.928 523.17L634 522.969ZM638.705 548.333L637.632 548.532H637.632L638.705 548.333ZM685.806 735.667L684.808 736.106C684.817 736.128 684.828 736.149 684.839 736.17L685.806 735.667ZM791.345 885.727L792.17 885.014L791.345 885.727ZM811.309 908.963L810.478 909.669C810.857 910.115 811.521 910.182 811.982 909.821C812.443 909.46 812.536 908.799 812.193 908.324L811.309 908.963ZM684.712 543.035L684.307 542.022C683.879 542.193 683.604 542.616 683.622 543.077L684.712 543.035ZM860.926 484.297L861.929 483.867C861.724 483.391 861.213 483.124 860.706 483.229L860.926 484.297ZM864.21 491.959L864.634 492.963C864.902 492.85 865.113 492.635 865.221 492.366C865.33 492.097 865.326 491.796 865.212 491.529L864.21 491.959ZM717.912 563.831L717.23 562.979C716.949 563.204 716.797 563.553 716.824 563.912L717.912 563.831ZM718.63 573.61L717.542 573.689L718.63 573.61ZM797.08 839.279L796.158 839.861C796.464 840.347 797.094 840.512 797.599 840.239C798.103 839.966 798.311 839.349 798.073 838.827L797.08 839.279ZM747.828 573.316L747.22 572.411C746.909 572.619 746.727 572.974 746.738 573.348L747.828 573.316ZM866.763 497.796L867.692 497.224C867.389 496.732 866.755 496.561 866.246 496.836L866.763 497.796ZM869.682 502.539L870.269 503.458C870.771 503.137 870.923 502.474 870.611 501.967L869.682 502.539ZM809.12 549.237L808.342 548.473C808.182 548.635 808.077 548.844 808.042 549.07L809.12 549.237ZM809.12 631.325L808.031 631.383C808.04 631.547 808.085 631.707 808.164 631.851L809.12 631.325ZM896.315 718.155L895.932 719.176C896.189 719.272 896.472 719.268 896.726 719.165L896.315 718.155ZM982.415 631.325L983.426 631.735C983.46 631.65 983.484 631.562 983.496 631.471L982.415 631.325ZM985.334 549.967L986.424 549.924C986.412 549.632 986.284 549.357 986.068 549.16L985.334 549.967ZM857.486 521.633L858.18 522.475L858.18 522.475L857.486 521.633ZM857.638 521.508L858.545 522.113C858.845 521.663 858.77 521.061 858.368 520.699C857.967 520.336 857.36 520.323 856.943 520.667L857.638 521.508ZM824.073 551.789L823.252 551.071C823.076 551.272 822.98 551.531 822.982 551.798L824.073 551.789ZM827.356 617.459L826.275 617.599C826.291 617.722 826.328 617.842 826.384 617.952L827.356 617.459ZM896.675 690.061L896.223 691.054C896.529 691.193 896.881 691.183 897.179 691.028L896.675 690.061ZM965.263 617.459L966.29 617.827C966.321 617.741 966.341 617.652 966.349 617.562L965.263 617.459ZM965.482 615.166L966.568 615.269V615.269L965.482 615.166ZM969.276 553.249H970.367C970.367 552.972 970.262 552.705 970.073 552.503L969.276 553.249ZM936.442 521.508L937.109 520.646C936.675 520.31 936.06 520.349 935.671 520.736C935.283 521.124 935.243 521.739 935.578 522.174L936.442 521.508ZM957.967 553.249L959.053 553.156C959.04 553 958.993 552.849 958.917 552.713L957.967 553.249ZM955.778 593.38L954.7 593.21L955.778 593.38ZM896.675 661.604L896.259 662.612C896.527 662.723 896.829 662.722 897.096 662.61L896.675 661.604ZM837.937 593.38L839.012 593.197C839.009 593.182 839.006 593.167 839.003 593.152L837.937 593.38ZM835.748 554.343L834.834 553.747C834.727 553.911 834.667 554.1 834.658 554.295L835.748 554.343ZM851.787 530.251L852.693 530.858L851.787 530.251ZM924.906 497.279L922.352 502.022L924.273 503.056L926.827 498.313L924.906 497.279ZM1045.09 572.44C1012.34 548.175 952.317 511.933 926.415 496.853L925.318 498.738C951.221 513.819 1011.15 550.008 1043.79 574.193L1045.09 572.44ZM1036.4 699.688C1043.12 647.684 1045.28 593.79 1045.53 573.329L1043.35 573.303C1043.1 593.703 1040.94 647.509 1034.23 699.409L1036.4 699.688ZM995.059 839.781C1020.83 790 1033.35 725.645 1036.4 699.676L1034.23 699.421C1031.2 725.258 1018.72 789.324 993.121 838.778L995.059 839.781ZM1054.32 703.688C1040.64 764.791 1007.87 819.133 993.218 838.624L994.962 839.935C1009.74 820.267 1042.69 765.646 1056.45 704.165L1054.32 703.688ZM1075.09 564.478C1069.84 634.176 1059.05 686.326 1054.33 703.639L1056.43 704.213C1061.2 686.746 1072.01 634.457 1077.26 564.642L1075.09 564.478ZM928.398 492.978C979.097 512.209 1047.67 549.337 1075.63 565.504L1076.72 563.616C1048.74 547.435 980.042 510.234 929.172 490.939L928.398 492.978ZM931.448 483.828L927.8 491.49L929.77 492.427L933.418 484.766L931.448 483.828ZM1108.72 542.037C1058.15 519.82 970.302 493.583 932.722 483.245L932.144 485.349C969.72 495.685 1057.43 521.887 1107.84 544.034L1108.72 542.037ZM1084.53 704.203C1101.77 638.439 1108.28 569.405 1109.37 543.081L1107.19 542.99C1106.1 569.201 1099.61 638.074 1082.42 703.65L1084.53 704.203ZM981.431 909.659C1051.05 825.708 1075.62 738.182 1084.53 704.203L1082.42 703.65C1073.53 737.53 1049.06 824.685 979.752 908.266L981.431 909.659ZM983.306 904.656C981.941 906.031 980.771 907.21 979.808 908.204L981.374 909.721C982.326 908.739 983.486 907.57 984.854 906.192L983.306 904.656ZM1090.22 767.183C1036.3 851.258 998.04 889.808 983.306 904.656L984.854 906.192C999.667 891.266 1038.04 852.597 1092.05 768.361L1090.22 767.183ZM1157.55 522.792C1134.94 659.941 1117.08 717.437 1090.18 767.254L1092.1 768.291C1119.18 718.143 1137.08 660.352 1159.71 523.147L1157.55 522.792ZM934.509 477.72C1032.56 487.927 1105.09 506.879 1158.3 524.008L1158.96 521.931C1105.64 504.765 1032.96 485.775 934.735 475.551L934.509 477.72ZM936.565 470.31L933.647 476.148L935.598 477.123L938.516 471.286L936.565 470.31ZM1108.51 476.662C1059.32 466.415 973.964 467.763 937.483 469.709L937.599 471.887C974.084 469.941 1059.18 468.614 1108.06 478.798L1108.51 476.662ZM1066.98 306.632C1088.82 330.343 1100.29 363.729 1105.58 395.938C1110.88 428.134 1109.98 459.012 1107.2 477.568L1109.36 477.892C1112.17 459.113 1113.07 428.006 1107.74 395.584C1102.4 363.175 1090.83 329.31 1068.59 305.155L1066.98 306.632ZM1082.7 449.926C1089.76 424.178 1088.71 394.727 1084.7 368.435C1080.68 342.129 1073.7 318.891 1068.81 305.519L1066.76 306.268C1071.61 319.529 1078.55 342.625 1082.54 368.764C1086.53 394.917 1087.55 424.021 1080.6 449.349L1082.7 449.926ZM938.922 459.811C953.236 455.907 979.962 453.568 1007.67 452.241C1035.33 450.917 1063.84 450.607 1081.64 450.729L1081.66 448.547C1063.83 448.426 1035.28 448.736 1007.56 450.063C979.894 451.387 952.93 453.73 938.348 457.706L938.922 459.811ZM933.026 453.219L937.769 459.421L939.502 458.096L934.759 451.894L933.026 453.219ZM1028.19 407.703C1015.91 409.923 997.512 417.743 979.6 426.541C961.649 435.358 944.056 445.223 933.334 451.62L934.451 453.493C945.132 447.121 962.673 437.285 980.561 428.499C998.488 419.694 1016.63 412.008 1028.58 409.85L1028.19 407.703ZM1027.54 406.868C1027.46 407.459 1027.38 408.046 1027.3 408.63L1029.46 408.923C1029.54 408.34 1029.62 407.753 1029.7 407.162L1027.54 406.868ZM971.677 172.634C1008.55 224.252 1024.23 270.05 1029.85 309.291C1035.47 348.545 1031.02 381.288 1027.54 406.868L1029.7 407.162C1033.18 381.574 1037.67 348.565 1032.01 308.982C1026.34 269.385 1010.52 223.26 973.452 171.366L971.677 172.634ZM1001.73 391.114C1020.47 297.698 991.486 208.502 973.546 171.524L971.584 172.476C989.397 209.194 1018.2 297.891 999.588 390.685L1001.73 391.114ZM928.697 444.682L1001.3 391.781L1000.01 390.018L927.413 442.919L928.697 444.682ZM921.695 436.773L927.168 444.434L928.943 443.167L923.47 435.505L921.695 436.773ZM944.054 412.396L921.799 435.38L923.366 436.898L945.621 413.913L944.054 412.396ZM912.702 386.809C928.151 392.817 939.957 407.26 943.907 413.723L945.768 412.586C941.691 405.915 929.565 391.026 913.492 384.776L912.702 386.809ZM911.667 423.292C916.741 421.323 920 418.507 921.825 415.161C923.646 411.825 923.972 408.09 923.424 404.403C922.337 397.074 917.765 389.666 913.933 385.092L912.261 386.493C915.969 390.918 920.263 397.957 921.267 404.723C921.765 408.083 921.444 411.307 919.911 414.117C918.383 416.917 915.582 419.433 910.878 421.259L911.667 423.292ZM882.451 423.366H911.273V421.185H882.451V423.366ZM879.767 385.121C870.339 397.201 868.452 406.145 870.342 412.499C872.23 418.844 877.756 422.178 882.176 423.331L882.726 421.22C878.755 420.184 874.029 417.243 872.433 411.877C870.839 406.519 872.236 398.316 881.487 386.463L879.767 385.121ZM850.973 413.608C853.935 407.119 859.531 401.288 865.408 396.615C871.274 391.951 877.327 388.512 881.083 386.783L880.171 384.801C876.265 386.599 870.06 390.129 864.051 394.908C858.053 399.677 852.156 405.764 848.989 412.702L850.973 413.608ZM867.6 432.521L850.818 412.455L849.144 413.854L865.927 433.92L867.6 432.521ZM864.091 441.005L867.739 433.708L865.788 432.733L862.14 440.029L864.091 441.005ZM792.44 392.157L862.488 441.409L863.742 439.625L793.694 390.372L792.44 392.157ZM816.146 171.929C776.922 261.795 783.695 355.708 792.005 391.511L794.13 391.018C785.9 355.557 779.15 262.141 818.146 172.801L816.146 171.929ZM809.019 189.511C811.927 184.207 814.957 178.682 818.104 172.885L816.188 171.844C813.042 177.636 810.014 183.158 807.106 188.462L809.019 189.511ZM764.6 408.662C758.489 350.601 759.744 313.841 767.42 282.62C775.099 251.387 789.218 225.623 809.019 189.511L807.106 188.462C787.333 224.524 773.061 250.54 765.302 282.1C757.539 313.673 756.308 350.721 762.431 408.891L764.6 408.662ZM853.894 450.936C814.957 423.417 777.631 410.66 763.742 407.71L763.289 409.843C776.884 412.731 813.936 425.366 852.635 452.718L853.894 450.936ZM852.066 457.027L854.255 452.284L852.274 451.37L850.085 456.113L852.066 457.027ZM710.703 451.455C742.986 448.837 817.625 454.491 850.973 457.655L851.179 455.484C817.883 452.325 743.038 446.644 710.527 449.28L710.703 451.455ZM723.121 305.441C698.76 358.859 703.929 424.455 709.549 450.597L711.681 450.138C706.112 424.23 701.017 359.167 725.106 306.346L723.121 305.441ZM685.799 478.735C682.518 439.005 682.802 409.4 688.65 383.018C694.492 356.658 705.907 333.442 725.003 306.525L723.224 305.263C704.013 332.341 692.443 355.823 686.52 382.546C680.602 409.247 680.338 439.11 683.625 478.914L685.799 478.735ZM851.18 469.713C784.206 463.278 712.175 472.39 684.504 477.754L684.919 479.895C712.46 474.557 784.27 465.476 850.971 471.884L851.18 469.713ZM854.286 476.253L852.097 470.415L850.054 471.181L852.243 477.018L854.286 476.253ZM634.393 523.987C691.749 501.859 804.259 483.921 853.401 477.718L853.128 475.553C804.009 481.754 691.246 499.716 633.607 521.952L634.393 523.987ZM639.777 548.135C638.245 539.848 636.682 531.392 635.072 522.769L632.928 523.17C634.538 531.791 636.1 540.244 637.632 548.532L639.777 548.135ZM686.805 735.228C665.343 686.394 653.877 624.405 639.777 548.135L637.632 548.532C651.716 624.715 663.222 686.989 684.808 736.106L686.805 735.228ZM792.17 885.014C754.286 841.181 723.199 805.212 686.774 735.164L684.839 736.17C721.385 806.451 752.607 842.575 790.52 886.44L792.17 885.014ZM812.14 908.256C805.248 900.145 798.61 892.465 792.17 885.014L790.52 886.44C796.96 893.892 803.592 901.565 810.478 909.669L812.14 908.256ZM683.622 543.077C690.638 725.777 751.608 828.134 810.425 909.601L812.193 908.324C753.534 827.075 692.796 725.127 685.802 542.993L683.622 543.077ZM860.706 483.229C812.439 493.175 722.968 526.582 684.307 542.022L685.116 544.048C723.8 528.599 813.097 495.266 861.146 485.365L860.706 483.229ZM865.212 491.529L861.929 483.867L859.924 484.727L863.207 492.388L865.212 491.529ZM718.593 564.682C723.98 560.372 733.319 554.773 744.98 548.517C756.621 542.271 770.512 535.405 784.96 528.561C813.856 514.873 844.943 501.289 864.634 492.963L863.785 490.954C844.074 499.288 812.958 512.885 784.027 526.59C769.562 533.442 755.634 540.325 743.949 546.595C732.283 552.853 722.788 558.533 717.23 562.979L718.593 564.682ZM719.718 573.531C719.479 570.257 719.241 566.996 718.999 563.75L716.824 563.912C717.065 567.156 717.303 570.415 717.542 573.689L719.718 573.531ZM798.003 838.698C731.352 732.964 725.249 649.348 719.718 573.531L717.542 573.689C723.079 649.585 729.209 733.654 796.158 839.861L798.003 838.698ZM746.738 573.348C749.22 657.595 756.339 712.761 765.453 752.592C774.572 792.442 785.682 816.911 796.088 839.732L798.073 838.827C787.683 816.044 776.648 791.735 767.58 752.106C758.507 712.458 751.398 657.444 748.918 573.284L746.738 573.348ZM866.246 496.836C840.213 510.876 776.026 553.085 747.22 572.411L748.435 574.222C777.273 554.875 841.362 512.735 867.281 498.756L866.246 496.836ZM870.611 501.967L867.692 497.224L865.835 498.367L868.753 503.11L870.611 501.967ZM809.898 550.002C826.734 532.876 857.144 511.843 870.269 503.458L869.095 501.62C855.952 510.016 825.362 531.159 808.342 548.473L809.898 550.002ZM810.209 631.266C807.583 582.538 809.121 556.34 810.198 549.405L808.042 549.07C806.929 556.241 805.403 582.628 808.031 631.383L810.209 631.266ZM896.698 717.134C877.092 709.782 858.566 693.91 843.341 676.957C828.129 660.019 816.301 642.102 810.075 630.799L808.164 631.851C814.464 643.289 826.387 661.344 841.718 678.415C857.035 695.47 875.843 711.643 895.932 719.176L896.698 717.134ZM981.405 630.915C961.412 680.171 916.042 708.945 895.904 717.145L896.726 719.165C917.205 710.826 963.141 681.712 983.426 631.735L981.405 630.915ZM984.244 550.01C985.701 587.01 982.908 619.563 981.335 631.178L983.496 631.471C985.085 619.737 987.886 587.058 986.424 549.924L984.244 550.01ZM922.782 503.491C943.092 514.807 972.44 539.708 984.6 550.774L986.068 549.16C973.905 538.092 944.394 513.036 923.843 501.586L922.782 503.491ZM858.18 522.475L858.332 522.349L856.943 520.667L856.791 520.792L858.18 522.475ZM824.894 552.507C832.94 543.312 850.407 528.89 858.18 522.475L856.791 520.792C849.081 527.156 831.443 541.71 823.252 551.071L824.894 552.507ZM828.438 617.319C826.404 601.63 825.285 566.981 825.164 551.781L822.982 551.798C823.104 567 824.222 601.767 826.275 617.599L828.438 617.319ZM897.127 689.068C880.987 681.719 866.06 668.201 854.004 654.215C841.955 640.239 832.848 625.883 828.329 616.966L826.384 617.952C830.986 627.034 840.193 641.536 852.351 655.64C864.502 669.734 879.673 683.518 896.223 691.054L897.127 689.068ZM964.236 617.092C957.897 634.814 945.081 650.634 931.702 663.142C918.328 675.645 904.472 684.762 896.17 689.094L897.179 691.028C905.659 686.604 919.677 677.37 933.191 664.736C946.701 652.106 959.788 636.004 966.29 617.827L964.236 617.092ZM964.396 615.062C964.317 615.887 964.244 616.654 964.178 617.356L966.349 617.562C966.416 616.861 966.489 616.095 966.568 615.269L964.396 615.062ZM968.186 553.249C968.186 575.393 965.617 602.288 964.396 615.062L966.568 615.269C967.786 602.513 970.367 575.514 970.367 553.249H968.186ZM935.774 522.371C944.741 529.313 961.294 546.321 968.48 553.994L970.073 552.503C962.908 544.853 946.238 527.713 937.109 520.646L935.774 522.371ZM958.917 552.713C952.457 541.261 941.814 526.692 937.305 520.842L935.578 522.174C940.068 527.999 950.635 542.471 957.017 553.784L958.917 552.713ZM956.855 593.55C959.264 578.293 959.67 560.431 959.053 553.156L956.88 553.341C957.48 560.416 957.086 578.1 954.7 593.21L956.855 593.55ZM897.096 662.61C916.478 654.488 930.853 640.747 940.652 627.314C950.433 613.904 955.726 600.702 956.855 593.55L954.7 593.21C953.641 599.922 948.535 612.805 938.889 626.028C929.261 639.228 915.179 652.667 896.253 660.598L897.096 662.61ZM836.862 593.564C840.122 612.662 850.674 628.147 862.521 639.724C874.364 651.297 887.563 659.026 896.259 662.612L897.091 660.596C888.64 657.111 875.68 649.533 864.046 638.164C852.415 626.798 842.172 611.707 839.012 593.197L836.862 593.564ZM834.658 554.295C833.779 574.227 835.755 588.403 836.87 593.609L839.003 593.152C837.93 588.142 835.965 574.153 836.837 554.391L834.658 554.295ZM850.881 529.643C845.444 537.756 838.692 547.832 834.834 553.747L836.661 554.939C840.51 549.038 847.252 538.976 852.693 530.858L850.881 529.643ZM856.73 520.903C855.22 523.169 853.166 526.233 850.881 529.643L852.693 530.858C854.978 527.448 857.033 524.381 858.545 522.113L856.73 520.903Z" fill="url(#paint1_linear_10_275)"/>
</g>
<defs>
<filter id="filter0_dddddd_10_275" x="0.333496" y="-25.4073" width="1791.96" height="2004.3" filterUnits="userSpaceOnUse" color-interpolation-filters="sRGB">
<feFlood flood-opacity="0" result="BackgroundImageFix"/>
<feColorMatrix in="SourceAlpha" type="matrix" values="0 0 0 0 0 0 0 0 0 0 0 0 0 0 0 0 0 0 127 0" result="hardAlpha"/>
<feOffset dy="12.0724"/>
<feGaussianBlur stdDeviation="8.7525"/>
<feColorMatrix type="matrix" values="0 0 0 0 0.0392157 0 0 0 0 0.0470588 0 0 0 0 0.0627451 0 0 0 0.0506062 0"/>
<feBlend mode="normal" in2="BackgroundImageFix" result="effect1_dropShadow_10_275"/>
<feColorMatrix in="SourceAlpha" type="matrix" values="0 0 0 0 0 0 0 0 0 0 0 0 0 0 0 0 0 0 127 0" result="hardAlpha"/>
<feOffset dy="29.0117"/>
<feGaussianBlur stdDeviation="21.0335"/>
<feColorMatrix type="matrix" values="0 0 0 0 0.0392157 0 0 0 0 0.0470588 0 0 0 0 0.0627451 0 0 0 0.0727007 0"/>
<feBlend mode="normal" in2="effect1_dropShadow_10_275" result="effect2_dropShadow_10_275"/>
<feColorMatrix in="SourceAlpha" type="matrix" values="0 0 0 0 0 0 0 0 0 0 0 0 0 0 0 0 0 0 127 0" result="hardAlpha"/>
<feOffset dy="54.6264"/>
<feGaussianBlur stdDeviation="39.6041"/>
<feColorMatrix type="matrix" values="0 0 0 0 0.0392157 0 0 0 0 0.0470588 0 0 0 0 0.0627451 0 0 0 0.09 0"/>
<feBlend mode="normal" in2="effect2_dropShadow_10_275" result="effect3_dropShadow_10_275"/>
<feColorMatrix in="SourceAlpha" type="matrix" values="0 0 0 0 0 0 0 0 0 0 0 0 0 0 0 0 0 0 127 0" result="hardAlpha"/>
<feOffset dy="97.4442"/>
<feGaussianBlur stdDeviation="70.647"/>
<feColorMatrix type="matrix" values="0 0 0 0 0.0392157 0 0 0 0 0.0470588 0 0 0 0 0.0627451 0 0 0 0.107299 0"/>
<feBlend mode="normal" in2="effect3_dropShadow_10_275" result="effect4_dropShadow_10_275"/>
<feColorMatrix in="SourceAlpha" type="matrix" values="0 0 0 0 0 0 0 0 0 0 0 0 0 0 0 0 0 0 127 0" result="hardAlpha"/>
<feOffset dy="182.259"/>
<feGaussianBlur stdDeviation="132.138"/>
<feColorMatrix type="matrix" values="0 0 0 0 0.0392157 0 0 0 0 0.0470588 0 0 0 0 0.0627451 0 0 0 0.129394 0"/>
<feBlend mode="normal" in2="effect4_dropShadow_10_275" result="effect5_dropShadow_10_275"/>
<feColorMatrix in="SourceAlpha" type="matrix" values="0 0 0 0 0 0 0 0 0 0 0 0 0 0 0 0 0 0 127 0" result="hardAlpha"/>
<feOffset dy="436.259"/>
<feGaussianBlur stdDeviation="316.288"/>
<feColorMatrix type="matrix" values="0 0 0 0 0.0392157 0 0 0 0 0.0470588 0 0 0 0 0.0627451 0 0 0 0.18 0"/>
<feBlend mode="normal" in2="effect5_dropShadow_10_275" result="effect6_dropShadow_10_275"/>
<feBlend mode="normal" in="SourceGraphic" in2="effect6_dropShadow_10_275" result="shape"/>
</filter>
<linearGradient id="paint0_linear_10_275" x1="1158.63" y1="172" x2="462.268" y2="667.726" gradientUnits="userSpaceOnUse">
<stop stop-color="#EA1D22"/>
<stop offset="1" stop-color="#B31317"/>
</linearGradient>
<linearGradient id="paint1_linear_10_275" x1="1158.63" y1="172" x2="462.268" y2="667.726" gradientUnits="userSpaceOnUse">
<stop stop-color="#EA1D22"/>
<stop offset="1" stop-color="#B31317"/>
</linearGradient>
</defs>
</svg>
