<svg width="24" height="24" viewBox="0 0 24 24" fill="none" xmlns="http://www.w3.org/2000/svg">
<path fill-rule="evenodd" clip-rule="evenodd" d="M6.74263 0C3.01878 0 0 3.01878 0 6.74263V17.2574C0 20.9812 3.01878 24 6.74263 24H17.2574C20.9812 24 24 20.9812 24 17.2574V6.74263C24 3.01878 20.9812 0 17.2574 0H6.74263ZM6.6484 2.21618C4.20056 2.21618 2.21618 4.20056 2.21618 6.64841V17.3517C2.21618 19.7996 4.20056 21.784 6.6484 21.784H17.3046C19.7524 21.784 21.7368 19.7996 21.7368 17.3517V6.6484C21.7368 4.20056 19.7524 2.21618 17.3046 2.21618H6.6484Z" fill="#959698"/>
<path fill-rule="evenodd" clip-rule="evenodd" d="M11.9989 18.2003C15.3973 18.2003 18.1522 15.4454 18.1522 12.047C18.1522 8.6487 15.3973 5.8938 11.9989 5.8938C8.6006 5.8938 5.8457 8.6487 5.8457 12.047C5.8457 15.4454 8.6006 18.2003 11.9989 18.2003ZM11.9989 16.0315C14.2254 16.0315 16.0303 14.2266 16.0303 12.0001C16.0303 9.77356 14.2254 7.96862 11.9989 7.96862C9.77237 7.96862 7.96744 9.77356 7.96744 12.0001C7.96744 14.2266 9.77237 16.0315 11.9989 16.0315Z" fill="#959698"/>
<circle cx="18.4596" cy="5.58753" r="1.43811" fill="#959698"/>
</svg>
